<?xml version="1.0" encoding="UTF-8" standalone="no"?>
<svg
   xmlns:dc="http://purl.org/dc/elements/1.1/"
   xmlns:cc="http://creativecommons.org/ns#"
   xmlns:rdf="http://www.w3.org/1999/02/22-rdf-syntax-ns#"
   xmlns:svg="http://www.w3.org/2000/svg"
   xmlns="http://www.w3.org/2000/svg"
   viewBox="0 0 646.84003 618.84003"
   height="618.84003"
   width="646.84003"
   xml:space="preserve"
   id="svg2"
   version="1.1"><metadata
     id="metadata8"><rdf:RDF><cc:Work
         rdf:about=""><dc:format>image/svg+xml</dc:format><dc:type
           rdf:resource="http://purl.org/dc/dcmitype/StillImage" /></cc:Work></rdf:RDF></metadata><defs
     id="defs6" /><g
     transform="matrix(1.3333333,0,0,-1.3333333,0,618.84)"
     id="g10"><g
       transform="scale(0.1)"
       id="g12"><path
         id="path14"
         style="fill:#100f0d;fill-opacity:1;fill-rule:nonzero;stroke:none"
         d="m 4777.69,4589.39 c -84.93,74 -240.12,73.79 -298.87,-32.6 -437.13,-791.78 -592.02,-679.57 -592.02,-679.57 -0.27,-0.31 -0.48,-0.63 -0.73,-0.93 l -352.55,307.13 c -64.52,56.21 -162.41,49.47 -218.61,-15.03 l -16.96,-19.49 c -56.21,-64.51 -49.47,-162.38 15.05,-218.6 79.29,110.13 299.89,24.75 518.22,-131.52 -127.09,-134.81 -249,-265.4 -365.97,-391.92 -646.9,34.92 -1448.73,32.01 -2077.75,-1.56 -117.41,126.99 -239.81,258.12 -367.43,393.48 218.34,156.27 438.95,241.65 518.22,131.52 64.52,56.22 71.27,154.09 15.07,218.6 l -16.97,19.49 c -56.22,64.5 -154.09,71.24 -218.61,15.03 L 965.227,3876.29 c -0.258,0.3 -0.481,0.62 -0.739,0.93 0,0 -154.89,-112.21 -592.008,679.57 -58.734,106.39 -213.941,106.6 -298.8706,32.6 -84.9063,-73.95 -107.211,-229.53 -8.6406,-300.5 725.3242,-522.17 592.0232,-679.56 592.0232,-679.56 0.266,-0.3 0.559,-0.55 0.817,-0.86 L 305.25,3301.34 c -64.527,-56.19 -71.27,-154.07 -15.059,-218.6 l 16.961,-19.46 c 56.223,-64.53 154.094,-71.27 218.61,-15.06 -95.121,97.25 21.777,305.66 207.261,500.78 50.883,-61.46 101.09,-121.91 150.629,-181.34 -45.687,-4.68 -89.23,-9.59 -130.125,-14.75 C 756.594,2106.86 1061.92,1392.95 1410.81,983.84 892.168,285.051 774.734,0 774.734,0 c 0,0 250.416,163.34 856.996,766.09 403.53,-331.328 793.91,-331.328 793.91,-331.328 0,0 379.65,19.558 777.16,348.008 C 3821.51,166.379 4076.56,0 4076.56,0 c 0,0 -119.63,290.25 -650.12,1002.7 355.05,412.52 668.83,1123.9 671.32,2350.21 -41.31,5.37 -84.65,10.45 -129.69,15.25 49.39,59.26 99.47,119.55 150.2,180.84 185.49,-195.12 302.4,-403.53 207.26,-500.78 64.53,-56.21 162.39,-49.47 218.62,15.06 l 16.95,19.46 c 56.22,64.53 49.48,162.41 -15.05,218.6 l -352.57,307.14 c 0.26,0.3 0.55,0.56 0.81,0.85 0,0 -133.29,157.39 592.04,679.56 98.57,70.97 76.27,226.55 -8.64,300.5" /><path
         id="path16"
         style="fill:#ffffff;fill-opacity:1;fill-rule:nonzero;stroke:none"
         d="M 3451.3,2060.64 C 3451.3,1494.19 2992.1,1035 2425.65,1035 1859.21,1035 1400,1494.19 1400,2060.64 c 0,566.46 459.21,1025.66 1025.65,1025.66 566.45,0 1025.65,-459.2 1025.65,-1025.66" /><path
         id="path18"
         style="fill:#b11d23;fill-opacity:1;fill-rule:nonzero;stroke:none"
         d="m 3073.47,2060.64 c 0,-357.75 -290.06,-647.81 -647.82,-647.81 -357.79,0 -647.81,290.06 -647.81,647.81 0,357.78 290.02,647.82 647.81,647.82 357.76,0 647.82,-290.04 647.82,-647.82" /><path
         id="path20"
         style="fill:#1c1413;fill-opacity:1;fill-rule:nonzero;stroke:none"
         d="m 2785.56,2060.64 c 0,-198.76 -161.13,-359.9 -359.91,-359.9 -198.78,0 -359.93,161.14 -359.93,359.9 0,198.75 161.15,359.91 359.93,359.91 198.78,0 359.91,-161.16 359.91,-359.91" /><path
         id="path22"
         style="fill:#ffffff;fill-opacity:1;fill-rule:nonzero;stroke:none"
         d="m 2680.33,2192.42 c 0,-76.16 -61.71,-137.86 -137.84,-137.86 -76.16,0 -137.89,61.7 -137.89,137.86 0,76.16 61.73,137.87 137.89,137.87 76.13,0 137.84,-61.71 137.84,-137.87" /><path
         id="path24"
         style="fill:#ffffff;fill-opacity:1;fill-rule:nonzero;stroke:none"
         d="m 2382.85,1948.73 c 0,-37.41 -30.3,-67.73 -67.69,-67.73 -37.39,0 -67.72,30.32 -67.72,67.73 0,37.38 30.33,67.69 67.72,67.69 37.39,0 67.69,-30.31 67.69,-67.69" /></g></g></svg>